PathFileType  4	(X/Y/Z) C:\Users\antoi\Documents\MyRepositories\mobilecap\ResultsAnalysis
DataRate	CameraRate	NumFrames	NumMarkers	Units	OrigDataRate	OrigDataStartFrame	OrigNumFrames
100.0	100.0	4	51	mm	100.0	33	261
Frame#	Time	r_knee			r_shank_antsup			r_ankle			r_calc			r_5meta			r_toe			L_knee			L_shank_antsup			L_ankle			L_calc			L_5meta			L_toe			r_sh2			r_sh3			r_sh4			L_sh2			L_sh3			r_thigh1			r_thigh2			r_thigh3			r_thigh4			r_thigh5			L_thigh1			L_thigh2			L_thigh3			L_thigh4			r.ASIS			r.PSIS			L.ASIS			L.PSIS			C7			R_Shoulder			L_Shoulder			R_Sternum			L_Sternum			R_humerus			R_elbow_med			R_elbow_lat			R_forearm			R_wrist_radius			R_wrist_ulna			L_humerus			L_elbow_med			L_elbow_lat			L_forearm			L_wrist_radius			L_wrist_ulna			R_HJC			L_HJC			R_HJC_reg			L_HJC_reg			
		X1	Y1	Z1	X2	Y2	Z2	X3	Y3	Z3	X4	Y4	Z4	X5	Y5	Z5	X6	Y6	Z6	X7	Y7	Z7	X8	Y8	Z8	X9	Y9	Z9	X10	Y10	Z10	X11	Y11	Z11	X12	Y12	Z12	X13	Y13	Z13	X14	Y14	Z14	X15	Y15	Z15	X16	Y16	Z16	X17	Y17	Z17	X18	Y18	Z18	X19	Y19	Z19	X20	Y20	Z20	X21	Y21	Z21	X22	Y22	Z22	X23	Y23	Z23	X24	Y24	Z24	X25	Y25	Z25	X26	Y26	Z26	X27	Y27	Z27	X28	Y28	Z28	X29	Y29	Z29	X30	Y30	Z30	X31	Y31	Z31	X32	Y32	Z32	X33	Y33	Z33	X34	Y34	Z34	X35	Y35	Z35	X36	Y36	Z36	X37	Y37	Z37	X38	Y38	Z38	X39	Y39	Z39	X40	Y40	Z40	X41	Y41	Z41	X42	Y42	Z42	X43	Y43	Z43	X44	Y44	Z44	X45	Y45	Z45	X46	Y46	Z46	X47	Y47	Z47	X48	Y48	Z48	X49	Y49	Z49	X50	Y50	Z50	X51	Y51	Z51	

33	0.32000000	-1196.46832	854.00355	-414.09432	-1168.49258	757.20422	-428.96907	-1262.28922	427.92001	-464.55507	-1346.69305	381.90592	-513.96835	-1150.40097	355.89007	-425.02896	-1092.84479	384.16860	-489.08619	-1210.67034	851.97703	-721.01760	-1215.60569	760.35811	-741.96607	-1279.71955	430.84642	-677.61007	-1354.96460	382.07346	-615.39546	-1171.07059	359.61837	-719.54701	-1107.29571	386.60128	-660.35082	-1192.33633	648.15566	-408.04590	-1229.49704	777.33622	-386.51474	-1270.35164	669.08544	-384.56475	-1304.31807	774.74790	-732.21010	-1309.04736	652.72234	-723.80536	-1115.20389	1172.94017	-384.20134	-1112.24773	1063.52019	-398.80406	-1216.39892	1051.54189	-381.60619	-1227.04989	1165.01740	-375.17393	-1165.15090	1034.64603	-369.54810	-1122.85888	1138.55317	-737.50019	-1121.93725	998.60419	-721.52425	-1231.89094	1134.88093	-755.58527	-1235.21923	997.83898	-743.06453	-1100.61935	1387.20490	-430.46345	-1284.18781	1415.80696	-493.32988	-1105.94807	1380.79060	-680.10081	-1287.33543	1416.12519	-606.72005	-1084.80725	1943.97743	-556.05763	-1049.17495	1873.09080	-391.03243	-1073.74545	1879.37699	-725.78109	-1003.16312	1816.87498	-532.81309	-1006.70595	1817.56172	-587.19941	-1112.71372	1728.59506	-317.54822	-1286.43398	1596.91075	-351.46203	-1261.93231	1608.59012	-270.70169	-1296.15942	1440.69142	-230.11837	-1303.50345	1344.66938	-225.15230	-1340.34748	1369.79431	-211.63893	-1155.61867	1786.36824	-802.95742	-1307.25381	1601.91993	-755.64433	-1304.33158	1623.58919	-833.63276	-1309.11901	1558.53465	-877.25138	-1373.45076	1394.04484	-916.75543	-1410.40587	1411.89436	-914.44347	-1191.95274	1278.36938	-445.96844	-1201.11819	1280.91347	-652.71040	-1167.75432	1307.34267	-463.94295	-1172.33458	1307.80642	-628.72746	
34	0.33000000	-1195.78460	853.89101	-414.21610	-1167.76429	756.96564	-429.00032	-1262.50477	427.78214	-464.14739	-1346.44244	381.79979	-514.01139	-1150.47435	355.92078	-425.08214	-1092.92128	384.40778	-489.17712	-1211.06891	851.94982	-721.23898	-1215.66468	760.20648	-741.98333	-1279.76739	430.75185	-677.68686	-1354.98612	381.96933	-615.61140	-1171.15953	359.57565	-719.38158	-1107.37679	386.73910	-660.37362	-1191.90470	648.06257	-407.99578	-1228.57992	777.32581	-385.60020	-1269.91400	669.34182	-384.31957	-1304.52894	774.39872	-732.61278	-1309.05414	652.41284	-724.00998	-1115.47110	1172.98192	-384.32638	-1112.11292	1063.80690	-398.69802	-1216.38649	1051.45930	-381.59781	-1227.31861	1164.86366	-375.32496	-1165.16451	1034.62834	-369.61414	-1123.31096	1138.50989	-737.24007	-1122.40959	998.52468	-721.14399	-1232.27082	1134.68342	-755.68545	-1235.62498	997.76693	-743.37700	-1100.97360	1386.76686	-430.65890	-1284.41616	1416.66482	-493.41520	-1106.14415	1380.20852	-680.21735	-1287.89192	1416.97619	-606.55070	-1079.49659	1942.74464	-556.67675	-1044.47282	1871.82967	-391.60589	-1068.22706	1878.27839	-726.57212	-999.54730	1814.30589	-534.12942	-1002.27768	1815.44517	-587.54402	-1111.69886	1729.02064	-318.00051	-1288.78710	1602.02435	-352.52272	-1264.57592	1613.46659	-271.67947	-1304.67175	1447.21666	-230.04308	-1315.20182	1351.71073	-224.38000	-1351.34204	1378.03937	-211.46161	-1152.16734	1787.38239	-803.47532	-1309.11624	1607.60427	-755.91270	-1305.70912	1629.05849	-833.72085	-1312.55170	1564.87841	-878.49815	-1382.51038	1402.05436	-917.00610	-1418.86071	1421.09335	-914.41068	-1193.10713	1278.58595	-445.95868	-1202.34246	1281.07869	-652.69827	-1168.39573	1307.36095	-463.91362	-1173.45615	1307.81440	-628.63616	
35	0.34000000	-1194.83761	853.77074	-414.51087	-1166.87406	756.67816	-429.08627	-1262.61109	427.71058	-463.70117	-1346.53959	381.73530	-514.00020	-1150.55907	355.95967	-425.14441	-1093.04853	384.63644	-489.15412	-1211.50592	851.95239	-721.58210	-1215.75268	760.03547	-742.10384	-1279.86397	430.63298	-677.81078	-1355.14322	382.05765	-615.39554	-1171.24861	359.55700	-719.26751	-1107.49219	386.93352	-660.42711	-1191.33013	647.94342	-408.02159	-1227.44846	777.57658	-385.03297	-1269.44704	669.61366	-384.13139	-1304.81459	774.05765	-733.13851	-1309.03761	652.08324	-724.36158	-1115.58183	1173.00461	-384.44983	-1111.89132	1064.11920	-398.55314	-1216.44663	1051.12458	-382.19687	-1227.31189	1164.85765	-374.97258	-1164.97034	1034.61170	-369.62936	-1123.80086	1138.49015	-737.06763	-1122.89635	998.44145	-720.89511	-1232.64474	1134.52129	-755.77067	-1236.06562	997.68473	-743.71880	-1101.45005	1386.29535	-431.13818	-1284.70641	1417.31805	-493.80622	-1106.39170	1379.53576	-680.17508	-1288.00266	1417.60245	-606.86785	-1074.00682	1941.41183	-557.28556	-1039.73218	1870.55711	-392.08382	-1062.54011	1877.02561	-727.43822	-994.55280	1812.69319	-533.25278	-997.83406	1813.36696	-588.08648	-1110.62592	1729.52775	-318.39367	-1290.79686	1607.32542	-353.77782	-1267.04988	1618.50123	-272.74894	-1313.00697	1454.09770	-230.18625	-1326.79982	1358.93690	-223.75740	-1362.06442	1386.61626	-211.77105	-1148.55527	1788.28616	-803.72502	-1310.73684	1613.30662	-755.95586	-1306.72631	1634.62025	-833.65762	-1316.00155	1570.91317	-878.68909	-1391.18465	1410.34014	-917.01970	-1426.90813	1430.51313	-914.12320	-1194.27914	1278.70207	-446.14124	-1203.31617	1281.07888	-652.89087	-1169.36246	1307.38669	-464.37288	-1174.15403	1307.79971	-628.76020	
36	0.35000000	-1193.68114	853.65313	-414.90467	-1165.86009	756.44151	-429.19299	-1262.63903	427.61172	-463.34081	-1346.80148	381.73090	-513.95448	-1150.65600	356.00161	-425.19193	-1093.17076	384.82685	-489.10081	-1211.95247	851.84208	-721.78796	-1215.94717	759.94144	-742.36496	-1280.01551	430.40325	-677.83413	-1355.30524	382.01706	-615.29405	-1171.30496	359.57458	-719.24925	-1107.59914	387.10830	-660.48381	-1190.58043	647.81551	-408.07958	-1226.30912	777.72975	-385.06302	-1268.62379	669.69070	-384.06961	-1305.07060	773.81121	-733.85215	-1308.97652	651.84453	-724.98299	-1115.45988	1173.07957	-384.56774	-1111.71732	1064.28630	-398.70791	-1216.34326	1050.74151	-382.69311	-1227.28711	1164.74716	-374.64861	-1164.57357	1034.51959	-369.71886	-1124.40080	1138.44734	-736.89460	-1123.42236	998.36398	-720.82717	-1233.08012	1134.43583	-756.27215	-1236.53765	997.53317	-743.94804	-1102.00358	1385.82209	-431.63623	-1284.95004	1417.95964	-494.38259	-1106.62232	1378.85400	-680.19985	-1287.83674	1418.13635	-607.41434	-1068.30169	1939.94318	-557.88044	-1034.88600	1869.24698	-392.41542	-1056.62060	1875.76764	-728.63246	-989.07430	1811.58650	-531.65247	-993.35682	1811.28544	-588.63768	-1109.42753	1730.09723	-318.61718	-1292.53959	1612.73696	-355.21805	-1269.31066	1623.61448	-273.94486	-1321.06621	1461.23519	-230.69020	-1338.13024	1366.46742	-223.47448	-1372.49217	1395.41691	-212.46459	-1144.72887	1789.03417	-804.10746	-1312.03614	1619.09309	-755.88485	-1307.37278	1640.19208	-833.67669	-1319.29858	1576.32997	-877.32830	-1399.47376	1418.73999	-916.57707	-1434.50801	1440.07278	-913.53671	-1195.45682	1278.81017	-446.43141	-1204.14255	1281.04080	-653.19785	-1170.50891	1307.46598	-464.94259	-1174.69946	1307.72269	-629.03361	
